<?xml version="1.0" standalone="no"?><!DOCTYPE svg PUBLIC "-//W3C//DTD SVG 1.1//EN" "http://www.w3.org/Graphics/SVG/1.1/DTD/svg11.dtd"><svg t="1730871806696" class="icon" viewBox="0 0 1024 1024" version="1.1" xmlns="http://www.w3.org/2000/svg" p-id="4419" xmlns:xlink="http://www.w3.org/1999/xlink" width="200" height="200"><path d="M456.746 745.319v-1.405 1.405z m56.215-56.917c-30.918 0-56.215 24.594-56.215 55.512v0.703c0 6.324 4.919 11.243 11.243 11.243s11.243-4.919 11.243-11.243v-0.703c0-18.27 14.756-33.729 33.729-33.729s33.729 15.459 33.729 33.729v0.703c0 6.324 4.919 11.243 11.243 11.243s11.243-4.919 11.243-11.243v-0.703c-0.001-30.215-25.297-55.512-56.215-55.512z m-130.7-119.133c-15.459-3.513-38.648-2.811-43.566 13.351-2.811 9.838 13.351 11.243 28.107 14.756 11.946 2.811 18.27 9.135 16.864 11.243-2.811 3.513-20.378-3.513-36.54 2.108-15.459 5.621-12.648 19.675-3.513 23.189 9.135 3.513 23.891-0.703 58.323 4.919 17.567 2.811 28.107-2.811 30.216-13.351 4.216-23.892-28.108-51.296-49.891-56.215z m209.4 56.917c2.108 10.54 11.946 16.162 30.215 13.351 34.432-5.621 49.188-1.405 58.323-4.919 9.135-3.513 11.946-18.27-3.513-23.189-15.459-5.621-33.026 1.405-36.54-2.108-2.108-2.811 4.919-9.135 16.865-11.946 14.756-3.513 30.918-4.919 28.107-14.756-4.919-16.162-27.405-16.864-43.567-13.351-21.782 4.92-54.106 32.324-49.89 56.918z m420.909-293.722L817.224 152.576c-6.324-6.324-15.459-9.135-24.594-9.135H232.589c-9.135 0-17.567 3.513-23.891 9.135L11.946 332.464C4.216 339.491 0 348.626 0 359.166V799.75c0 44.269 35.837 80.809 80.809 80.809h862.898c44.269 0 80.809-36.54 80.809-80.809V359.166c0-9.838-4.919-19.675-11.946-26.702z m-352.748-2.811c-12.648 0-23.189 10.54-23.189 23.891 0 66.052-56.215 121.565-122.97 121.565s-122.97-55.512-122.97-121.565c0-12.648-10.54-23.891-23.189-23.891H93.457l146.159-133.51h546.689l144.753 133.51H659.822z m310.587 47.783V799.75c0 15.459-11.946 26.702-26.702 26.702H80.809c-15.459 0-28.107-11.946-28.107-26.702V377.436h292.317c5.621 36.54 23.189 70.971 51.296 96.971 32.324 30.918 73.782 47.08 117.349 47.08s85.025-16.864 117.349-47.08c27.405-26.702 45.675-60.431 51.296-96.971h288.1z" fill="#3F95FD" p-id="4420"></path></svg>