<?xml version="1.0" standalone="no"?><!DOCTYPE svg PUBLIC "-//W3C//DTD SVG 1.1//EN" "http://www.w3.org/Graphics/SVG/1.1/DTD/svg11.dtd"><svg height="1080" node-id="1" sillyvg="true" template-height="1080" template-width="1080" version="1.1" viewBox="0 0 1080 1080" width="1080" xmlns="http://www.w3.org/2000/svg" xmlns:xlink="http://www.w3.org/1999/xlink"><defs node-id="37"><clipPath id="clip-path" node-id="5"><path d="M 588.94 624.70 C 587.12 625.25 585.35 625.87 583.63 626.58 C 581.76 627.34 579.66 627.27 577.85 626.39 C 576.03 625.51 574.68 623.90 574.11 621.97 L 545.69 526.48 L 222.00 622.81 L 299.17 882.13 C 304.80 901.00 324.65 911.75 343.53 906.13 L 598.87 830.13 C 617.74 824.50 628.49 804.65 622.87 785.77 L 604.63 724.46 C 604.05 722.53 604.31 720.44 605.34 718.72 C 606.38 716.99 608.10 715.78 610.08 715.39 C 611.93 715.05 613.75 714.61 615.55 714.07 C 642.35 706.07 658.11 679.62 650.77 654.93 C 643.43 630.24 615.74 616.73 588.94 624.70 Z" fill="#000000" fill-rule="nonzero" node-id="40" stroke="none" target-height="385.27002" target-width="436.11" target-x="222" target-y="526.48"></path></clipPath><clipPath id="clip-path-2" node-id="7"><path d="M 458.35 233.00 L 168.82 319.14 C 149.95 324.76 139.20 344.62 144.82 363.49 L 222.00 622.81 L 333.08 589.81 C 334.85 589.28 336.77 589.51 338.36 590.46 C 339.95 591.42 341.06 592.99 341.43 594.81 C 341.76 596.48 342.17 598.14 342.67 599.81 C 350.67 626.60 377.12 642.37 401.80 635.02 C 426.48 627.67 440.04 600.02 432.06 573.20 C 431.56 571.54 431.00 569.91 430.36 568.33 C 429.68 566.61 429.76 564.69 430.57 563.03 C 431.39 561.37 432.86 560.13 434.63 559.61 L 545.71 526.55 Z" fill="#000000" fill-rule="nonzero" node-id="44" stroke="none" target-height="409.37" target-width="406.51" target-x="139.2" target-y="233"></path></clipPath><clipPath id="clip-path-3" node-id="9"><path d="M 458.35 233.00 L 483.22 316.56 C 484.03 319.25 483.65 322.17 482.15 324.55 C 480.66 326.94 478.21 328.56 475.43 329.00 C 472.84 329.39 470.27 329.95 467.76 330.70 C 440.97 338.70 425.20 365.15 432.55 389.84 C 439.90 414.53 467.55 428.07 494.36 420.10 C 496.88 419.36 499.33 418.43 501.71 417.32 C 504.28 416.19 507.20 416.22 509.75 417.40 C 512.29 418.58 514.20 420.79 515.00 423.48 L 545.65 526.48 L 651.38 495.00 C 657.69 493.08 661.26 486.42 659.38 480.10 L 659.29 479.80 C 651.29 453.00 664.87 425.32 689.55 417.98 C 714.23 410.64 740.71 426.40 748.68 453.20 L 748.77 453.49 C 750.66 459.83 757.33 463.44 763.67 461.57 L 835.17 440.29 C 854.04 434.67 864.79 414.81 859.17 395.94 L 792.17 170.80 C 786.55 151.93 766.69 141.18 747.82 146.80 Z" fill="#000000" fill-rule="nonzero" node-id="48" stroke="none" target-height="385.3" target-width="439.58997" target-x="425.2" target-y="141.18"></path></clipPath></defs><g node-id="122"><path d="M 676.44 661.47 C 674.08 662.19 671.78 662.99 669.54 663.91 C 667.12 664.90 664.39 664.81 662.04 663.67 C 659.67 662.52 657.92 660.43 657.18 657.93 L 620.27 533.90 L 199.83 659.02 L 300.06 995.84 C 307.38 1020.35 333.16 1034.32 357.68 1027.02 L 689.34 928.30 C 713.85 920.99 727.81 895.21 720.51 870.68 L 696.82 791.05 C 696.07 788.54 696.41 785.83 697.74 783.59 C 699.09 781.35 701.33 779.77 703.90 779.27 C 706.30 778.83 708.67 778.25 711.01 777.55 C 745.82 767.16 766.29 732.81 756.75 700.74 C 747.22 668.67 711.25 651.12 676.44 661.47 Z" fill="#99adf9" fill-rule="nonzero" group-id="1" node-id="55" stroke="none" target-height="500.42163" target-width="566.4569" target-x="199.82889" target-y="533.89526"></path><g node-id="123"><g clip-path="url(#clip-path)" group-id="1,2" node-id="59"><path d="M 564.00 977.82 C 564.00 977.82 380.05 1029.45 339.54 999.47 C 305.40 974.27 303.83 948.29 255.38 845.80 C 254.84 934.12 303.04 1079.08 303.04 1079.08 Z" fill="#99adf9" fill-opacity="0.25" fill-rule="nonzero" group-id="1,2,7" node-id="61" stroke="none" target-height="233.27985" target-width="309.16068" target-x="254.8367" target-y="845.7966"></path></g></g><g node-id="124"><path d="M 356.54 629.05 C 356.54 629.05 374.49 714.99 439.55 695.63 C 504.61 676.28 472.59 594.49 472.59 594.49 Z" fill="#99adf9" fill-opacity="0.25" fill-rule="nonzero" group-id="1,3" node-id="67" stroke="none" target-height="120.49762" target-width="148.07294" target-x="356.53946" target-y="594.48834"></path></g><path d="M 506.82 152.70 L 130.75 264.58 C 106.24 271.88 92.28 297.68 99.58 322.19 L 199.83 659.02 L 344.11 616.15 C 346.41 615.47 348.90 615.76 350.97 617.00 C 353.03 618.24 354.47 620.28 354.95 622.65 C 355.38 624.82 355.92 626.97 356.57 629.14 C 366.96 663.94 401.31 684.42 433.37 674.88 C 465.43 665.33 483.04 629.42 472.67 594.58 C 472.02 592.42 471.30 590.31 470.46 588.25 C 469.58 586.02 469.69 583.53 470.74 581.37 C 471.80 579.21 473.71 577.60 476.01 576.93 L 620.29 533.99 Z" fill="#fec272" fill-rule="nonzero" group-id="1" node-id="70" stroke="none" target-height="531.7247" target-width="528.0099" target-x="92.28125" target-y="152.69847"></path><g clip-path="url(#clip-path-2)" group-id="1,4" node-id="74"><path d="M 151.90 522.53 C 151.90 522.53 100.32 338.58 130.23 298.07 C 155.45 263.94 200.06 243.96 252.76 228.27 C 164.43 227.72 50.63 261.57 50.63 261.57 Z" fill="#fec272" fill-opacity="0.52" fill-rule="nonzero" group-id="1,4,8" node-id="76" stroke="none" target-height="294.80804" target-width="202.13254" target-x="50.625965" target-y="227.72212"></path></g><path d="M 506.82 152.70 L 539.12 261.23 C 540.18 264.73 539.68 268.52 537.73 271.61 C 535.80 274.72 532.62 276.82 529.01 277.39 C 525.64 277.90 522.30 278.63 519.04 279.60 C 484.25 289.99 463.76 324.35 473.31 356.42 C 482.86 388.49 518.77 406.07 553.59 395.72 C 556.87 394.76 560.05 393.55 563.14 392.11 C 566.48 390.64 570.27 390.68 573.58 392.21 C 576.88 393.75 579.36 396.62 580.40 400.11 L 620.21 533.90 L 757.54 493.01 C 765.74 490.51 770.38 481.86 767.94 473.65 L 767.82 473.26 C 757.43 438.45 775.07 402.50 807.12 392.97 C 839.18 383.43 873.57 403.90 883.93 438.71 L 884.04 439.09 C 886.50 447.32 895.16 452.01 903.40 449.58 L 996.27 421.94 C 1020.78 414.64 1034.74 388.85 1027.44 364.34 L 940.41 71.91 C 933.11 47.40 907.32 33.43 882.81 40.73 Z" fill="#ff97c9" fill-rule="nonzero" group-id="1" node-id="80" stroke="none" target-height="500.4605" target-width="570.97705" target-x="463.76245" target-y="33.43489"></path><g clip-path="url(#clip-path-3)" group-id="1,5" node-id="82"><path d="M 519.04 279.59 C 519.04 279.59 482.99 298.65 496.13 342.89 C 509.28 387.13 540.02 392.89 560.24 396.50 C 523.87 428.17 416.41 384.58 416.41 384.58 L 457.01 275.35 Z" fill="#ff97c9" fill-opacity="0.19" fill-rule="nonzero" group-id="1,5,9" node-id="86" stroke="none" target-height="152.81387" target-width="143.83856" target-x="416.4051" target-y="275.3522"></path><path d="M 1000.89 274.79 C 1000.89 274.79 943.49 92.57 896.30 75.00 C 856.53 60.20 799.60 54.76 746.93 70.44 C 820.62 21.67 943.06 0.92 943.06 0.92 Z" fill="#ff97c9" fill-opacity="0.19" fill-rule="nonzero" group-id="1,5,10" node-id="91" stroke="none" target-height="273.86996" target-width="253.95807" target-x="746.93243" target-y="0.9235773"></path></g><path d="M 272.00 410.96 C 272.00 423.24 262.05 433.19 249.76 433.19 C 237.47 433.19 227.52 423.24 227.52 410.96 C 227.52 398.67 237.47 388.72 249.76 388.72 C 262.05 388.72 272.00 398.67 272.00 410.96 Z" fill="#1c3177" fill-rule="nonzero" group-id="1" node-id="95" stroke="none" target-height="44.473846" target-width="44.47383" target-x="227.5212" target-y="388.7189"></path><path d="M 436.94 361.88 C 436.94 374.17 426.99 384.12 414.70 384.12 C 402.42 384.12 392.47 374.17 392.47 361.88 C 392.47 349.60 402.42 339.65 414.70 339.65 C 426.99 339.65 436.94 349.60 436.94 361.88 Z" fill="#1c3177" fill-rule="nonzero" group-id="1" node-id="97" stroke="none" target-height="44.473846" target-width="44.473816" target-x="392.46667" target-y="339.64703"></path><path d="M 320.07 438.45 C 320.07 438.45 320.69 421.14 341.11 415.07 C 361.53 409.01 370.89 423.35 370.89 423.35" fill="none" group-id="1" node-id="99" stroke="#1c3177" stroke-linecap="round" stroke-width="9" target-height="29.44571" target-width="50.82538" target-x="320.0668" target-y="409.00754"></path><path d="M 410.34 797.87 C 410.34 810.16 400.39 820.10 388.10 820.10 C 375.81 820.10 365.87 810.16 365.87 797.87 C 365.87 785.58 375.81 775.63 388.10 775.63 C 400.39 775.63 410.34 785.58 410.34 797.87 Z" fill="#1c3177" fill-rule="nonzero" group-id="1" node-id="101" stroke="none" target-height="44.473877" target-width="44.473816" target-x="365.86548" target-y="775.6308"></path><path d="M 575.28 748.78 C 575.28 761.07 565.34 771.02 553.05 771.02 C 540.76 771.02 530.81 761.07 530.81 748.78 C 530.81 736.50 540.76 726.55 553.05 726.55 C 565.34 726.55 575.28 736.50 575.28 748.78 Z" fill="#1c3177" fill-rule="nonzero" group-id="1" node-id="103" stroke="none" target-height="44.473816" target-width="44.473816" target-x="530.8109" target-y="726.5459"></path><path d="M 698.04 277.56 C 701.54 289.33 692.85 295.00 681.07 298.51 C 669.29 302.02 658.91 302.02 655.40 290.25 C 652.95 282.57 654.83 274.17 660.34 268.29 C 665.83 262.40 674.08 259.95 681.91 261.87 C 689.73 263.79 695.90 269.79 698.04 277.56 Z" fill="#1c3177" fill-rule="nonzero" group-id="1" node-id="105" stroke="none" target-height="42.070923" target-width="48.59131" target-x="652.94507" target-y="259.94748"></path><path d="M 862.97 228.48 C 866.48 240.26 857.78 245.92 846.00 249.43 C 834.22 252.93 823.84 252.93 820.33 241.17 C 817.88 233.49 819.76 225.09 825.27 219.20 C 830.76 213.32 839.01 210.86 846.84 212.78 C 854.66 214.71 860.83 220.71 862.97 228.48 Z" fill="#1c3177" fill-rule="nonzero" group-id="1" node-id="107" stroke="none" target-height="42.070908" target-width="48.604248" target-x="817.8777" target-y="210.8626"></path><path d="M 808.84 295.36 C 808.02 306.56 794.41 305.37 774.68 311.24 C 754.95 317.11 745.52 326.83 737.39 316.62 C 726.99 303.63 744.83 283.11 764.56 277.24 C 784.29 271.36 810.05 278.83 808.84 295.36 Z" fill="#f774b9" fill-rule="nonzero" group-id="1" node-id="109" stroke="none" target-height="55.462402" target-width="83.05078" target-x="726.99445" target-y="271.3646"></path><path d="M 439.73 817.82 L 519.47 794.09 L 522.06 793.58 L 524.54 793.52 L 526.95 793.91 L 529.29 794.70 L 531.41 795.84 L 533.34 797.36 L 534.99 799.18 L 536.31 801.30 L 537.28 803.73 L 537.28 803.73 L 537.79 806.30 L 537.85 808.78 L 537.46 811.21 L 536.68 813.55 L 535.53 815.66 L 534.01 817.60 L 532.19 819.25 L 530.07 820.55 L 527.64 821.53 L 447.90 845.25 L 445.33 845.77 L 442.85 845.82 L 440.42 845.45 L 438.10 844.65 L 435.97 843.51 L 434.03 841.99 L 432.39 840.16 L 431.08 838.06 L 430.11 835.61 L 430.11 835.61 L 429.59 833.04 L 429.54 830.56 L 429.91 828.13 L 430.71 825.81 L 431.85 823.69 L 433.37 821.75 L 435.20 820.10 L 437.30 818.79 L 439.73 817.82 Z" fill="#ffffff" fill-rule="nonzero" group-id="1,6" node-id="113" stroke="none" target-height="52.30609" target-width="108.31409" target-x="429.5368" target-y="793.5165"></path><path d="M 877.94 735.59 L 900.11 775.72" fill="none" group-id="1" node-id="116" stroke="#1c3177" stroke-linecap="round" stroke-width="12" target-height="40.13556" target-width="22.171997" target-x="877.9379" target-y="735.5861"></path><path d="M 925.05 597.93 L 966.60 578.54" fill="none" group-id="1" node-id="118" stroke="#1c3177" stroke-linecap="round" stroke-width="12" target-height="19.392395" target-width="41.55133" target-x="925.0485" target-y="578.538"></path><path d="M 922.46 672.19 L 976.04 689.80" fill="none" group-id="1" node-id="120" stroke="#1c3177" stroke-linecap="round" stroke-width="12" target-height="17.612854" target-width="53.57898" target-x="922.46387" target-y="672.1877"></path></g></svg>