<?xml version="1.0" standalone="no"?><!DOCTYPE svg PUBLIC "-//W3C//DTD SVG 1.1//EN" "http://www.w3.org/Graphics/SVG/1.1/DTD/svg11.dtd"><svg height="1080" node-id="1" sillyvg="true" template-height="1080" template-width="1080" version="1.1" viewBox="0 0 1080 1080" width="1080" xmlns="http://www.w3.org/2000/svg" xmlns:xlink="http://www.w3.org/1999/xlink"><defs node-id="43"><clipPath id="clip-path" node-id="5"><path d="M 823.00 232.10 C 823.00 270.88 710.36 302.31 543.90 302.31 C 377.44 302.31 267.19 270.88 267.19 232.10 C 267.19 193.32 377.38 161.90 543.85 161.90 C 710.32 161.90 823.00 193.33 823.00 232.10 Z" fill="#000000" fill-rule="nonzero" node-id="46" stroke="none" target-height="140.41" target-width="555.81" target-x="267.19" target-y="161.9"></path></clipPath><clipPath id="clip-path-2" node-id="7"><path d="M 433.00 616.68 C 421.44 642.68 419.00 694.20 417.29 697.62 C 415.58 701.04 403.67 707.23 406.71 713.50 C 409.51 719.26 428.92 727.11 434.71 725.50 C 443.71 723.06 452.60 699.06 458.07 683.86 C 478.07 695.86 511.51 699.92 511.51 699.92 C 511.51 699.92 508.12 724.86 505.51 730.32 C 502.90 735.78 493.77 742.45 495.65 749.11 C 497.53 755.77 515.55 759.53 523.55 760.56 C 531.55 761.59 544.50 717.68 547.49 702.31 C 600.70 707.94 664.93 703.85 664.93 703.85 C 664.93 703.85 672.62 730.66 665.10 742.62 C 661.67 748.08 659.49 759.62 661.34 760.39 C 672.79 765.00 687.55 762.39 692.26 759.02 C 697.56 755.26 716.18 668.74 704.90 636.08 C 693.62 603.42 671.34 584.70 632.13 574.80 C 592.92 564.90 533.74 564.44 533.74 564.44 Z" fill="#000000" fill-rule="nonzero" node-id="50" stroke="none" target-height="200.56" target-width="312.50998" target-x="403.67" target-y="564.44"></path></clipPath></defs><g node-id="141"><g node-id="142"><path d="M 438.68 221.85 L 215.85 835.92 C 209.10 854.49 218.13 875.08 236.36 882.70 C 288.04 904.39 398.92 942.11 545.07 942.11 C 691.22 942.11 802.07 904.39 853.79 882.70 C 872.02 875.08 881.04 854.49 874.29 835.92 L 651.46 221.85 Z" fill="#ff97c9" fill-opacity="0.27" fill-rule="nonzero" group-id="1,2" node-id="59" stroke="none" target-height="720.26" target-width="671.93994" target-x="209.1" target-y="221.85"></path></g><path d="M 330.73 272.33 C 330.73 283.79 321.44 293.08 309.98 293.08 C 298.52 293.08 289.23 283.79 289.23 272.33 C 289.23 260.87 298.52 251.58 309.98 251.58 C 321.44 251.58 330.73 260.87 330.73 272.33 Z" fill="#738de0" fill-rule="nonzero" group-id="1" node-id="62" stroke="none" target-height="41.499985" target-width="41.5" target-x="289.23" target-y="251.58"></path><path d="M 800.91 272.33 C 800.91 283.79 791.62 293.08 780.16 293.08 C 768.70 293.08 759.41 283.79 759.41 272.33 C 759.41 260.87 768.70 251.58 780.16 251.58 C 791.62 251.58 800.91 260.87 800.91 272.33 Z" fill="#738de0" fill-rule="nonzero" group-id="1" node-id="64" stroke="none" target-height="41.499985" target-width="41.5" target-x="759.41" target-y="251.58"></path><path d="M 565.82 306.41 C 565.82 317.87 556.53 327.16 545.07 327.16 C 533.61 327.16 524.32 317.87 524.32 306.41 C 524.32 294.95 533.61 285.66 545.07 285.66 C 556.53 285.66 565.82 294.95 565.82 306.41 Z" fill="#738de0" fill-rule="nonzero" group-id="1" node-id="66" stroke="none" target-height="41.5" target-width="41.5" target-x="524.32" target-y="285.66"></path><path d="M 823.00 232.10 C 823.00 270.88 710.36 302.31 543.90 302.31 C 377.44 302.31 267.19 270.88 267.19 232.10 C 267.19 193.32 377.38 161.90 543.85 161.90 C 710.32 161.90 823.00 193.33 823.00 232.10 Z" fill="#99adf9" fill-rule="nonzero" group-id="1" node-id="68" stroke="none" target-height="140.41" target-width="555.81" target-x="267.19" target-y="161.9"></path><g clip-path="url(#clip-path)" group-id="1,3" node-id="72"><path d="M 823.00 206.48 C 823.00 245.25 710.36 276.69 543.90 276.69 C 377.44 276.69 267.24 245.25 267.24 206.48 C 267.24 167.71 377.43 136.27 543.90 136.27 C 710.37 136.27 823.00 167.71 823.00 206.48 Z" fill="#ffffff" fill-opacity="0.42" fill-rule="nonzero" group-id="1,3,10" node-id="74" stroke="none" target-height="140.42" target-width="555.76" target-x="267.24" target-y="136.27"></path></g><path d="M 545.35 230.05 C 592.91 230.05 637.61 224.33 676.52 214.27 C 668.05 152.10 610.16 104.00 540.00 104.00 C 470.90 104.00 413.70 150.67 403.90 211.49 C 445.14 223.27 493.56 230.05 545.35 230.05 Z" fill="#99adf9" fill-rule="nonzero" group-id="1" node-id="78" stroke="none" target-height="126.05" target-width="272.62003" target-x="403.9" target-y="104"></path><path d="M 652.88 706.57 C 653.95 696.26 644.14 691.25 627.40 690.06 C 610.66 688.87 600.53 692.44 599.46 702.75 C 599.08 706.32 599.95 709.90 601.94 712.89 C 602.68 714.06 602.68 715.54 601.94 716.71 C 600.36 719.27 599.13 721.91 600.03 722.92 C 601.33 724.38 604.40 723.10 607.93 720.69 C 608.94 720.00 610.24 719.89 611.35 720.40 C 613.70 721.41 616.16 722.15 618.67 722.61 C 620.10 722.87 621.23 723.96 621.54 725.37 C 622.14 728.37 623.33 731.37 625.70 731.57 C 628.70 731.85 630.25 729.43 630.84 725.88 C 631.06 724.35 632.25 723.13 633.78 722.88 C 635.07 722.68 636.34 722.40 637.60 722.05 C 638.82 721.74 640.12 722.10 641.00 723.00 C 643.86 725.79 646.51 727.28 648.06 726.00 C 649.06 725.15 648.45 722.50 647.48 720.00 C 646.95 718.69 647.24 717.18 648.22 716.16 C 650.84 713.60 652.48 710.21 652.88 706.57 Z" fill="#ff97c9" fill-rule="nonzero" group-id="1" node-id="80" stroke="none" target-height="42.97998" target-width="54.869995" target-x="599.08" target-y="688.87"></path><path d="M 433.00 616.68 C 421.44 642.68 419.00 694.20 417.29 697.62 C 415.58 701.04 403.67 707.23 406.71 713.50 C 409.51 719.26 428.92 727.11 434.71 725.50 C 443.71 723.06 452.60 699.06 458.07 683.86 C 478.07 695.86 511.51 699.92 511.51 699.92 C 511.51 699.92 508.12 724.86 505.51 730.32 C 502.90 735.78 493.77 742.45 495.65 749.11 C 497.53 755.77 515.55 759.53 523.55 760.56 C 531.55 761.59 544.50 717.68 547.49 702.31 C 600.70 707.94 664.93 703.85 664.93 703.85 C 664.93 703.85 672.62 730.66 665.10 742.62 C 661.67 748.08 659.49 759.62 661.34 760.39 C 672.79 765.00 687.55 762.39 692.26 759.02 C 697.56 755.26 716.18 668.74 704.90 636.08 C 693.62 603.42 671.34 584.70 632.13 574.80 C 592.92 564.90 533.74 564.44 533.74 564.44 Z" fill="#ffffff" fill-rule="nonzero" group-id="1" node-id="82" stroke="none" target-height="200.56" target-width="312.50998" target-x="403.67" target-y="564.44"></path><g clip-path="url(#clip-path-2)" group-id="1,4" node-id="84"><path d="M 623.35 564.49 C 623.35 564.49 614.35 598.65 632.58 616.68 C 650.81 634.71 688.13 632.41 708.39 608.83 C 689.00 573.48 623.35 564.49 623.35 564.49 Z" fill="#1c3177" fill-rule="nonzero" group-id="1,4" node-id="86" stroke="none" target-height="70.22003" target-width="94.04004" target-x="614.35" target-y="564.49"></path><path d="M 410.17 661.87 C 410.17 661.87 444.63 674.30 453.73 707.48 C 433.23 739.90 401.51 730.00 401.51 730.00" fill="#1c3177" fill-rule="nonzero" group-id="1,4" node-id="88" stroke="none" target-height="78.03003" target-width="52.22" target-x="401.51" target-y="661.87"></path><path d="M 664.52 628.59 C 675.11 628.59 682.80 632.15 687.41 638.94 C 690.92 644.11 701.24 656.66 712.77 649.75 C 727.86 640.75 704.66 609.43 704.66 609.43 L 675.79 607.21 Z" fill="#1c3177" fill-rule="nonzero" group-id="1,4" node-id="90" stroke="none" target-height="49.44995" target-width="63.339966" target-x="664.52" target-y="607.21"></path></g><path d="M 430.10 624.52 C 430.10 624.52 447.10 663.73 489.77 663.70 C 527.15 663.70 550.77 620.88 539.42 591.22 C 502.75 606.14 430.10 624.52 430.10 624.52 Z" fill="#f0f4ff" fill-rule="nonzero" group-id="1" node-id="93" stroke="none" target-height="72.51001" target-width="120.67001" target-x="430.1" target-y="591.22"></path><path d="M 421.19 507.88 C 421.19 507.88 410.81 483.67 417.34 473.54 C 423.87 463.41 445.00 499.17 445.00 499.17 Z" fill="#fec272" fill-rule="nonzero" group-id="1" node-id="95" stroke="none" target-height="44.47" target-width="34.190002" target-x="410.81" target-y="463.41"></path><path d="M 533.42 507.88 C 533.42 507.88 543.79 483.67 537.26 473.54 C 530.73 463.41 509.59 499.17 509.59 499.17 Z" fill="#fec272" fill-rule="nonzero" group-id="1" node-id="97" stroke="none" target-height="44.47" target-width="34.19998" target-x="509.59" target-y="463.41"></path><path d="M 547.17 569.15 C 543.86 607.70 530.94 640.90 468.94 635.57 C 406.94 630.24 398.82 595.23 402.13 556.69 C 405.44 518.15 440.60 489.69 480.65 493.12 C 520.70 496.55 550.48 530.60 547.17 569.15 Z" fill="#ffffff" fill-rule="nonzero" group-id="1" node-id="99" stroke="none" target-height="151.21002" target-width="151.65997" target-x="398.82" target-y="489.69"></path><path d="M 462.50 493.74 C 462.50 493.74 381.60 500.74 372.76 528.89 C 366.95 547.43 396.89 546.44 416.22 526.74 C 420.12 519.19 462.50 493.74 462.50 493.74 Z" fill="#ffffff" fill-rule="nonzero" group-id="1" node-id="101" stroke="none" target-height="53.690002" target-width="95.54999" target-x="366.95" target-y="493.74"></path><path d="M 486.25 493.74 C 486.25 493.74 567.14 500.74 575.98 528.89 C 581.80 547.43 551.86 546.44 532.52 526.74 C 528.62 519.19 486.25 493.74 486.25 493.74 Z" fill="#1c3177" fill-rule="nonzero" group-id="1" node-id="103" stroke="none" target-height="53.690002" target-width="95.54999" target-x="486.25" target-y="493.74"></path><path d="M 437.31 566.85 C 437.31 572.17 432.99 576.49 427.67 576.49 C 422.35 576.49 418.03 572.17 418.03 566.85 C 418.03 561.53 422.35 557.21 427.67 557.21 C 432.99 557.21 437.31 561.53 437.31 566.85 Z" fill="#1c3177" fill-rule="nonzero" group-id="1" node-id="105" stroke="none" target-height="19.279968" target-width="19.279999" target-x="418.03" target-y="557.21"></path><path d="M 530.44 574.85 C 530.44 580.17 526.12 584.49 520.80 584.49 C 515.48 584.49 511.16 580.17 511.16 574.85 C 511.16 569.53 515.48 565.21 520.80 565.21 C 526.12 565.21 530.44 569.53 530.44 574.85 Z" fill="#1c3177" fill-rule="nonzero" group-id="1" node-id="107" stroke="none" target-height="19.279968" target-width="19.279999" target-x="511.16" target-y="565.21"></path><path d="M 506.40 596.75 C 505.33 609.23 491.72 618.24 470.91 616.46 C 450.10 614.68 438.91 603.52 440.01 591.04 C 441.11 578.56 453.57 574.43 474.37 576.22 C 495.17 578.01 507.48 584.27 506.40 596.75 Z" fill="#ff97c9" fill-rule="nonzero" group-id="1" node-id="109" stroke="none" target-height="43.809998" target-width="68.57001" target-x="438.91" target-y="574.43"></path><path d="M 456.87 583.67 L 458.18 583.96 L 459.28 584.52 L 460.20 585.33 L 460.89 586.35 L 461.27 587.47 L 461.34 588.75 L 461.05 590.00 L 460.48 591.04 L 459.63 591.93 L 458.59 592.57 L 457.41 592.93 L 456.07 593.00 L 454.76 592.70 L 453.66 592.15 L 452.74 591.33 L 452.06 590.32 L 451.68 589.19 L 451.60 587.91 L 451.89 586.67 L 452.46 585.62 L 453.31 584.74 L 454.36 584.09 L 455.53 583.74 L 456.87 583.67 Z" fill="#ff97c9" fill-rule="nonzero" group-id="1,5" node-id="113" stroke="none" target-height="9.330017" target-width="9.73999" target-x="451.6" target-y="583.67"></path><path d="M 490.16 586.54 L 491.47 586.83 L 492.57 587.38 L 493.49 588.20 L 494.18 589.21 L 494.55 590.34 L 494.63 591.62 L 494.34 592.86 L 493.77 593.91 L 492.92 594.79 L 491.88 595.44 L 490.70 595.80 L 489.36 595.86 L 488.05 595.57 L 486.95 595.02 L 486.03 594.20 L 485.34 593.19 L 484.97 592.06 L 484.89 590.78 L 485.18 589.54 L 485.75 588.49 L 486.60 587.61 L 487.64 586.96 L 488.82 586.60 L 490.16 586.54 Z" fill="#ff97c9" fill-rule="nonzero" group-id="1,6" node-id="118" stroke="none" target-height="9.320007" target-width="9.73999" target-x="484.89" target-y="586.54"></path><path d="M 481.92 493.25 C 481.92 493.25 467.91 519.00 499.68 538.00 C 523.45 552.20 544.03 542.15 544.03 542.15 C 544.03 542.15 535.28 497.37 481.92 493.25 Z" fill="#1c3177" fill-rule="nonzero" group-id="1" node-id="121" stroke="none" target-height="58.950012" target-width="76.120026" target-x="467.91" target-y="493.25"></path><path d="M 623.00 636.13 C 632.82 637.13 638.54 657.33 630.17 663.70 C 621.80 670.07 607.80 659.14 606.94 649.92 C 606.08 640.70 610.54 634.82 623.00 636.13 Z" fill="#1c3177" fill-rule="nonzero" group-id="1" node-id="123" stroke="none" target-height="35.25" target-width="32.45996" target-x="606.08" target-y="634.82"></path><path d="M 515.74 649.40 C 519.18 639.07 542.74 641.21 553.32 650.78 C 563.90 660.35 569.20 680.32 563.91 684.08 C 558.62 687.84 547.68 675.80 537.91 672.29 C 528.14 668.78 512.40 659.40 515.74 649.40 Z" fill="#1c3177" fill-rule="nonzero" group-id="1" node-id="125" stroke="none" target-height="48.77002" target-width="56.799988" target-x="512.4" target-y="639.07"></path><path d="M 571.50 127.23 L 578.64 129.26 L 585.20 131.56 L 591.23 134.10 L 597.09 137.03 L 602.15 140.03 L 606.48 143.10 L 610.51 146.56 L 613.56 149.89 L 615.78 153.09 L 617.06 155.73 L 617.75 158.22 L 617.93 160.60 L 617.63 162.92 L 616.80 165.10 L 615.51 167.11 L 613.72 168.97 L 611.34 170.69 L 607.87 172.46 L 603.61 173.94 L 598.42 175.08 L 593.15 175.72 L 587.27 175.96 L 580.72 175.76 L 574.21 175.14 L 567.34 174.05 L 560.09 172.45 L 552.95 170.42 L 546.39 168.12 L 540.36 165.58 L 534.50 162.65 L 529.44 159.65 L 525.11 156.58 L 521.08 153.12 L 518.03 149.79 L 515.81 146.59 L 514.54 143.95 L 513.84 141.46 L 513.66 139.08 L 513.96 136.76 L 514.79 134.58 L 516.08 132.57 L 517.88 130.71 L 520.25 128.99 L 523.72 127.22 L 527.99 125.74 L 533.18 124.60 L 538.45 123.96 L 544.32 123.72 L 550.88 123.91 L 557.39 124.54 L 564.25 125.63 L 571.50 127.23 Z" fill="#ffffff" fill-opacity="0.42" fill-rule="nonzero" group-id="1,7" node-id="129" stroke="none" target-height="52.240005" target-width="104.27002" target-x="513.66" target-y="123.72"></path><path d="M 768.65 358.36 L 768.65 358.36 L 770.89 357.69 L 773.09 357.43 L 775.29 357.57 L 777.43 358.08 L 779.41 358.92 L 781.26 360.11 L 782.87 361.60 L 784.21 363.36 L 785.29 365.45 L 840.28 502.03 L 840.95 504.28 L 841.21 506.48 L 841.07 508.67 L 840.56 510.81 L 839.72 512.79 L 838.53 514.64 L 837.04 516.26 L 835.27 517.60 L 833.19 518.67 L 833.19 518.67 L 830.94 519.35 L 828.74 519.60 L 826.55 519.47 L 824.41 518.96 L 822.43 518.11 L 820.58 516.92 L 818.96 515.44 L 817.62 513.67 L 816.55 511.59 L 761.56 375.00 L 760.89 372.75 L 760.63 370.55 L 760.77 368.36 L 761.28 366.22 L 762.12 364.24 L 763.31 362.39 L 764.79 360.77 L 766.56 359.43 L 768.65 358.36 Z" fill="#fec272" fill-rule="nonzero" group-id="1,8" node-id="134" stroke="none" target-height="162.16998" target-width="80.58002" target-x="760.63" target-y="357.43"></path><path d="M 224.88 655.19 L 224.88 655.19 L 226.96 656.28 L 228.71 657.63 L 230.18 659.26 L 231.36 661.12 L 232.19 663.11 L 232.68 665.25 L 232.80 667.45 L 232.52 669.65 L 231.83 671.89 L 203.23 741.24 L 202.14 743.32 L 200.78 745.07 L 199.16 746.54 L 197.30 747.72 L 195.31 748.55 L 193.16 749.04 L 190.97 749.16 L 188.77 748.88 L 186.53 748.19 L 186.53 748.19 L 184.46 747.10 L 182.70 745.74 L 181.23 744.11 L 180.05 742.26 L 179.23 740.27 L 178.74 738.12 L 178.62 735.93 L 178.89 733.73 L 179.58 731.49 L 208.18 662.14 L 209.27 660.06 L 210.63 658.30 L 212.26 656.83 L 214.12 655.66 L 216.10 654.83 L 218.25 654.34 L 220.44 654.22 L 222.64 654.50 L 224.88 655.19 Z" fill="#fec272" fill-rule="nonzero" group-id="1,9" node-id="139" stroke="none" target-height="94.94" target-width="54.180008" target-x="178.62" target-y="654.22"></path></g></svg>