<?xml version="1.0" standalone="no"?><!DOCTYPE svg PUBLIC "-//W3C//DTD SVG 1.1//EN" "http://www.w3.org/Graphics/SVG/1.1/DTD/svg11.dtd"><svg t="1691743548346" class="icon" viewBox="0 0 1024 1024" version="1.1" xmlns="http://www.w3.org/2000/svg" p-id="4756" width="48" height="48" xmlns:xlink="http://www.w3.org/1999/xlink"><path d="M532.3 217.6c-145.3 0-263.5 118.2-263.5 263.5 0 110.4 68.2 205.1 164.7 244.2 6.2 2.5 12.4 4.8 18.8 6.8v104.2h160V732.1c6.4-2 12.7-4.3 18.8-6.8 96.5-39.2 164.7-133.9 164.7-244.2 0-145.3-118.2-263.5-263.5-263.5z" fill="#E9EFFF" p-id="4757"></path><path d="M726.9 246.5c-57.3-57.3-133.5-88.9-214.6-88.9S355 189.2 297.7 246.5 208.8 380 208.8 461.1s31.6 157.3 88.9 214.6c27.7 27.7 59.7 49.3 94.6 64.3v116.3h240V740c34.9-15 66.9-36.7 94.6-64.3 57.3-57.3 88.9-133.5 88.9-214.6s-31.6-157.2-88.9-214.6zM611.1 705.4c-6.2 2.5-12.4 4.8-18.8 6.8V816.5h-160V712.2c-6.4-2-12.7-4.3-18.8-6.8-96.5-39.2-164.7-133.9-164.7-244.2 0-145.3 118.2-263.5 263.5-263.5s263.5 118.2 263.5 263.5c0 110.3-68.2 205-164.7 244.2zM392.3 896.4h240v40h-240z" fill="#3366FF" p-id="4758"></path><path d="M653.7 452.5l-28.3-28.2-56.5 56.5-28.3-28.3-28.3-28.2-28.3 28.2-28.3 28.3-56.5-56.5-28.3 28.2 56.5 56.6 28.3 28.3 56.6-56.6 56.6 56.6 28.3-28.3zM492.3 87.6h40v40h-40zM138.2 438.7h40v40h-40zM221.216 224.609l28.284-28.284 28.284 28.284-28.284 28.284zM746.206 224.595l28.284-28.284 28.284 28.284-28.284 28.284zM845.8 438.7h40v40h-40z" fill="#3366FF" p-id="4759"></path></svg>