<?xml version="1.0" standalone="no"?><!DOCTYPE svg PUBLIC "-//W3C//DTD SVG 1.1//EN" "http://www.w3.org/Graphics/SVG/1.1/DTD/svg11.dtd"><svg t="1690810257781" class="icon" viewBox="0 0 1024 1024" version="1.1" xmlns="http://www.w3.org/2000/svg" p-id="5271" data-spm-anchor-id="a313x.7781069.0.i20" xmlns:xlink="http://www.w3.org/1999/xlink" width="32" height="32"><path d="M93.866667 93.866667m68.266666 0l699.733334 0q68.266667 0 68.266666 68.266666l0 699.733334q0 68.266667-68.266666 68.266666l-699.733334 0q-68.266667 0-68.266666-68.266666l0-699.733334q0-68.266667 68.266666-68.266666Z" fill="#ffffff" fill-opacity=".1" p-id="5272" data-spm-anchor-id="a313x.7781069.0.i18" class=""></path><path d="M487.790933 691.1232c-2.321067 0-4.650667 0.1792-6.971733 0.3584-1.2544 0.1792-2.5088 0.1792-3.754667 0.3584-0.3584 0-0.896 0.1792-1.2544 0.1792-0.896 0.1792-1.6128 0.1792-2.5088 0.3584-0.5376 0.1792-0.887467 0.1792-1.425066 0.3584l-2.1504 0.5376a5.213867 5.213867 0 0 1-1.604267 0.3584 29.44 29.44 0 0 0-3.584 1.0752 8.704 8.704 0 0 0-1.962667 0.708267l-1.6128 0.5376c-0.5376 0.1792-1.2544 0.5376-1.792 0.7168-0.529067 0.1792-1.066667 0.5376-1.604266 0.7168a8.3968 8.3968 0 0 0-1.792 0.896c-0.5376 0.170667-1.066667 0.5376-1.425067 0.7168-0.5376 0.349867-1.0752 0.529067-1.792 0.887466-0.5376 0.3584-1.0752 0.5376-1.4336 0.896a7.2192 7.2192 0 0 1-1.604267 0.896c-0.5376 0.3584-0.896 0.5376-1.4336 0.896l-1.604266 1.0752c-0.5376 0.349867-0.896 0.708267-1.4336 1.066667l-1.6128 1.0752c-0.5376 0.3584-0.896 0.7168-1.4336 1.0752-0.529067 0.3584-1.066667 0.7168-1.425067 1.2544-0.3584 0.349867-0.896 0.708267-1.2544 1.066667-0.5376 0.3584-0.896 0.896-1.4336 1.2544-0.349867 0.3584-0.887467 0.7168-1.245867 1.2544-0.5376 0.3584-0.896 0.896-1.4336 1.245866l-1.2544 1.2544c-0.3584 0.5376-0.896 0.896-1.245866 1.4336-0.3584 0.3584-0.7168 0.896-1.0752 1.2544-0.3584 0.529067-0.896 0.887467-1.2544 1.425067l-0.5376 0.5376c-0.170667 0.1792-0.170667 0.3584-0.3584 0.5376a34.944 34.944 0 0 0-3.037867 4.113067s0 0.170667-0.1792 0.170666l-2.679467 4.3008c-0.1792 0.170667-0.1792 0.3584-0.3584 0.5376 0 0.170667-0.1792 0.3584-0.1792 0.3584-0.7168 1.2544-1.4336 2.321067-1.962666 3.575467v0.170667c-0.725333 1.262933-1.2544 2.5088-1.9712 3.9424 0 0.1792-0.1792 0.3584-0.1792 0.3584-0.1792 0.3584-0.1792 0.5376-0.3584 0.896-0.3584 0.7168-0.7168 1.604267-1.0752 2.500266-0.170667 0.5376-0.3584 0.896-0.5376 1.4336-0.3584 0.896-0.5376 1.6128-0.896 2.500267-0.170667 0.3584-0.170667 0.5376-0.3584 0.896 0 0.1792-0.170667 0.3584-0.170667 0.5376a13.226667 13.226667 0 0 0-0.7168 2.500267c-0.1792 0.3584-0.1792 0.896-0.3584 1.2544a28.672 28.672 0 0 0-0.896 3.754666v0.1792a25.6 25.6 0 0 0-0.7168 3.933867c0 0.3584-0.170667 0.896-0.170667 1.2544-0.187733 0.896-0.366933 1.792-0.366933 2.679467v0.3584c0 0.3584 0 0.7168-0.170667 1.0752-0.187733 0.896-0.187733 1.792-0.187733 2.500266 0 0.5376 0 1.0752-0.170667 1.621334 0 0.887467-0.187733 1.604267-0.187733 2.500266v26.112h40.064v-23.611733-2.500267c0-0.896 0-1.621333 0.1792-2.5088 0-0.5376 0-1.0752 0.1792-1.6128 0-0.887467 0.1792-1.792 0.1792-2.500266 0-0.5376 0.1792-0.896 0.1792-1.4336 0.1792-0.887467 0.1792-1.792 0.3584-2.679467 0-0.3584 0.1792-0.896 0.1792-1.2544 0.170667-1.245867 0.5376-2.500267 0.7168-3.925333v-0.187734c0.3584-1.245867 0.5376-2.500267 0.896-3.754666 0.170667-0.3584 0.170667-0.896 0.349867-1.2544 0.187733-0.887467 0.5376-1.604267 0.7168-2.500267 0.1792-0.5376 0.3584-0.896 0.5376-1.4336 0.3584-0.887467 0.5376-1.604267 0.896-2.500267 0.1792-0.5376 0.3584-0.896 0.5376-1.4336 0.3584-0.896 0.7168-1.604267 1.0752-2.500266 0.170667-0.3584 0.3584-0.896 0.5376-1.2544 0.529067-1.2544 1.245867-2.679467 1.962666-3.933867v-0.1792c0.7168-1.2544 1.4336-2.500267 1.962667-3.584a3.857067 3.857067 0 0 1 0.546133-0.887467c0.887467-1.4336 1.792-2.858667 2.679467-4.113066 0 0 0-0.1792 0.170667-0.1792 1.083733-1.4336 1.979733-2.679467 3.0464-4.113067 0.3584-0.3584 0.5376-0.7168 0.896-1.0752 0.3584-0.5376 0.896-0.896 1.2544-1.4336 0.3584-0.349867 0.7168-0.887467 1.0752-1.245867 0.349867-0.5376 0.887467-0.896 1.245866-1.4336 0.3584-0.3584 0.7168-0.896 1.2544-1.2544 0.3584-0.3584 0.896-0.896 1.4336-1.245866 0.3584-0.3584 0.887467-0.7168 1.245867-1.2544 0.5376-0.3584 0.896-0.896 1.4336-1.2544 0.3584-0.3584 0.896-0.7168 1.2544-1.0752 0.5376-0.349867 0.887467-0.708267 1.425067-1.245867 0.5376-0.3584 0.896-0.7168 1.4336-1.0752l1.6128-1.0752c0.5376-0.3584 0.896-0.7168 1.425066-1.0752l1.6128-1.066667c0.5376-0.3584 0.896-0.5376 1.4336-0.896a7.253333 7.253333 0 0 1 1.604267-0.896c0.5376-0.3584 0.896-0.5376 1.4336-0.896 0.5376-0.3584 1.0752-0.5376 1.792-0.896 0.529067-0.170667 1.066667-0.529067 1.425067-0.708266 0.5376-0.3584 1.2544-0.5376 1.792-0.896 0.5376-0.1792 1.0752-0.5376 1.604266-0.7168 0.5376-0.170667 1.2544-0.5376 1.792-0.7168l1.6128-0.5376a8.704 8.704 0 0 0 1.962667-0.7168l1.6128-0.529067c0.7168-0.1792 1.4336-0.3584 1.962667-0.5376 0.5376-0.1792 1.0752-0.3584 1.621333-0.3584l2.133333-0.5376c0.546133-0.1792 0.896-0.1792 1.4336-0.3584 0.896-0.170667 1.6128-0.3584 2.5088-0.3584 0.3584 0 0.896-0.170667 1.245867-0.170667 1.2544-0.187733 2.5088-0.366933 3.754667-0.366933 1.0752-0.170667 2.3296-0.170667 3.4048-0.170667h3.396266-39.8848v-0.366933zM523.921067 536.772267c-1.2544-0.170667-2.3296-0.170667-3.584-0.349867-0.349867 0-0.529067-0.187733-0.887467-0.187733l-2.679467-0.529067c-0.3584 0-0.5376-0.1792-0.896-0.1792a23.8592 23.8592 0 0 1-3.396266-0.896c-0.1792 0-0.3584-0.1792-0.5376-0.1792-0.896-0.3584-1.792-0.5376-2.688-0.896-0.3584-0.170667-0.7168-0.170667-0.896-0.3584-0.887467-0.3584-1.962667-0.7168-2.858667-1.2544-0.170667 0-0.3584-0.170667-0.3584-0.170667l-3.217067-1.621333c-0.3584-0.170667-0.5376-0.349867-0.896-0.529067l-2.679466-1.6128c-1.0752-0.708267-1.962667-1.425067-2.8672-2.141866-0.3584-0.1792-0.5376-0.5376-0.896-0.7168-0.708267-0.5376-1.245867-1.0752-1.962667-1.6128l-0.896-0.887467c-0.5376-0.5376-1.2544-1.0752-1.792-1.792-0.170667-0.3584-0.529067-0.5376-0.708267-0.896-0.7168-0.896-1.6128-1.604267-2.3296-2.500267l-0.170666-0.1792c-0.7168-0.896-1.4336-1.962667-2.1504-2.8672-0.1792-0.349867-0.3584-0.529067-0.5376-0.887466-0.5376-0.7168-0.896-1.4336-1.4336-2.1504a3.7376 3.7376 0 0 0-0.7168-1.0752c-0.349867-0.708267-0.887467-1.425067-1.245867-2.141867l-0.5376-1.0752a25.403733 25.403733 0 0 1-1.4336-3.217067c-0.5376-1.2544-1.0752-2.5088-1.4336-3.754666-0.170667-0.3584-0.170667-0.896-0.349867-1.2544-0.1792-0.896-0.5376-1.792-0.7168-2.500267l-0.5376-2.1504c-0.1792-0.5376-0.1792-1.0752-0.3584-1.6128-0.1792-0.708267-0.1792-1.604267-0.3584-2.500267 0-0.5376-0.1792-0.896-0.1792-1.4336-0.170667-1.245867-0.170667-2.321067-0.170666-3.575466v-1.0752-2.679467-0.896c0-1.0752 0.170667-2.141867 0.349866-3.217067v-0.3584c0.1792-1.2544 0.3584-2.500267 0.5376-3.933866 0.170667-1.2544 0.5376-2.3296 0.896-3.584 0-0.170667 0-0.170667 0.170667-0.349867l1.0752-3.217067c0.1792-0.3584 0.1792-0.5376 0.3584-0.896l1.0752-2.688c0.1792-0.170667 0.1792-0.5376 0.3584-0.708266l1.6128-3.2256c0.170667-0.170667 0.170667-0.3584 0.349867-0.5376 0.5376-0.887467 0.896-1.604267 1.4336-2.500267 0.3584-0.5376 0.7168-1.0752 1.0752-1.4336a9.813333 9.813333 0 0 1 1.2544-1.604267c0.3584-0.5376 0.7168-0.896 1.066666-1.4336 0.5376-0.5376 0.896-1.2544 1.4336-1.792 0.1792-0.170667 0.3584-0.5376 0.5376-0.7168a31.744 31.744 0 0 1 2.3296-2.500266 53.973333 53.973333 0 0 1 37.7344-15.735467h-40.064a53.973333 53.973333 0 0 0-37.7344 15.735467c-0.896 0.896-1.621333 1.6128-2.3296 2.5088-0.170667 0.170667-0.3584 0.529067-0.5376 0.708266-0.170667 0.1792-0.3584 0.5376-0.5376 0.7168-0.3584 0.3584-0.5376 0.7168-0.896 1.0752-0.349867 0.5376-0.708267 0.896-1.066666 1.4336a9.856 9.856 0 0 1-1.2544 1.604267c-0.3584 0.5376-0.7168 1.0752-1.0752 1.4336-0.170667 0.170667-0.170667 0.3584-0.3584 0.5376-0.349867 0.7168-0.7168 1.2544-1.066667 1.962667-0.1792 0.1792-0.1792 0.3584-0.3584 0.5376a21.418667 21.418667 0 0 0-1.4336 2.8672c0 0.170667 0 0.170667-0.170667 0.3584-0.187733 0.170667-0.187733 0.529067-0.366933 0.708266l-1.0752 2.688c-0.170667 0.3584-0.170667 0.5376-0.349867 0.896 0 0.170667-0.187733 0.349867-0.187733 0.708267-0.349867 0.896-0.529067 1.792-0.887467 2.688 0 0.170667 0 0.170667-0.1792 0.3584l-0.5376 2.141867c-0.1792 0.5376-0.1792 0.896-0.3584 1.4336-0.1792 1.2544-0.5376 2.500267-0.5376 3.754666v0.3584c-0.170667 1.0752-0.170667 2.141867-0.3584 3.217067V485.085867c0 1.0752 0.1792 2.3296 0.1792 3.396266 0 0.5376 0.1792 0.896 0.1792 1.4336 0.1792 0.896 0.1792 1.6128 0.3584 2.3296 0.1792 0.529067 0.1792 1.066667 0.3584 1.604267 0.170667 0.7168 0.170667 1.4336 0.3584 1.962667v0.187733c0.170667 0.896 0.5376 1.792 0.7168 2.500267 0.170667 0.3584 0.170667 0.896 0.3584 1.2544 0.349867 1.2544 0.887467 2.500267 1.425067 3.754666 0.5376 1.0752 0.896 2.1504 1.4336 3.217067l0.5376 1.0752c0.3584 0.7168 0.7168 1.4336 1.2544 2.1504 0.170667 0.349867 0.349867 0.708267 0.708267 1.066667 0.3584 0.7168 0.896 1.4336 1.4336 2.1504 0.1792 0.3584 0.3584 0.5376 0.7168 0.896 0.7168 0.887467 1.4336 1.962667 2.141866 2.858666v0.170667c0.7168 0.904533 1.4336 1.792 2.3296 2.688 0.170667 0.3584 0.5376 0.5376 0.7168 0.896l1.792 1.792 0.887467 0.887467c0.1792 0.1792 0.3584 0.3584 0.7168 0.5376 0.3584 0.3584 0.896 0.7168 1.2544 1.0752 0.3584 0.1792 0.5376 0.5376 0.896 0.7168 0.887467 0.7168 1.962667 1.4336 2.858667 2.141866 0.3584 0.1792 0.7168 0.5376 1.0752 0.7168 0.529067 0.3584 1.066667 0.5376 1.604266 0.896 0.3584 0.1792 0.5376 0.3584 0.896 0.5376 1.0752 0.5376 1.962667 1.0752 3.037867 1.6128h0.1792c0.1792 0 0.3584 0.170667 0.3584 0.170667 0.896 0.3584 1.792 0.896 2.8672 1.2544 0.3584 0.1792 0.708267 0.1792 0.887467 0.3584 0.3584 0.1792 0.7168 0.1792 0.896 0.3584 0.5376 0.1792 1.2544 0.3584 1.792 0.5376 0.170667 0 0.3584 0.170667 0.5376 0.170667 0.887467 0.366933 1.962667 0.546133 2.858666 0.725333 0.170667 0 0.3584 0 0.5376 0.170667 0.3584 0 0.5376 0.187733 0.896 0.187733l2.679467 0.5376c0.3584 0 0.5376 0.170667 0.896 0.170667h0.5376c1.066667 0.1792 1.962667 0.1792 3.037867 0.3584h0.5376c0.7168 0 1.4336 0.1792 2.141866 0.1792h41.4976c-1.2544 0-2.321067 0-3.584-0.170667 0 0.170667-0.170667 0.170667-0.349866 0.170667zM477.4144 230.5792h0.7168c0.1792 0 0.3584 0 0.7168 0.170667h0.3584c0.3584 0 0.5376 0 0.896 0.187733h0.3584c0.5376 0 1.066667 0.170667 1.604267 0.170667h0.3584c0.3584 0 0.896 0.187733 1.4336 0.187733 0.170667 0 0.5376 0 0.7168 0.170667 0.3584 0 0.896 0.187733 1.245866 0.187733 0.3584 0 0.5376 0 0.896 0.170667 0.5376 0 1.0752 0.187733 1.6128 0.187733h0.708267c0.725333 0.170667 1.621333 0.170667 2.5088 0.3584h0.3584c0.7168 0.170667 1.6128 0.170667 2.3296 0.349867 0.349867 0 0.708267 0 0.887467 0.1792 0.7168 0 1.2544 0.1792 1.9712 0.1792 0.3584 0 0.7168 0 1.0752 0.1792 0.7168 0 1.245867 0.1792 1.962666 0.1792 0.3584 0 0.7168 0.1792 1.2544 0.1792 0.7168 0 1.6128 0.1792 2.3296 0.1792 0.349867 0 0.529067 0 0.887467 0.1792 1.0752 0.1792 2.1504 0.1792 3.396267 0.3584h0.896c0.896 0.1792 1.792 0.1792 2.688 0.3584 0.3584 0 0.896 0 1.245866 0.1792 0.7168 0 1.6128 0.170667 2.3296 0.170666a3.925333 3.925333 0 0 1 1.4336 0.187734c0.887467 0 1.604267 0.170667 2.500267 0.170666 0.3584 0 0.896 0 1.2544 0.187734 1.066667 0.170667 2.321067 0.170667 3.396267 0.3584h0.5376c1.2544 0.170667 2.679467 0.170667 3.925333 0.3584h1.262933c0.887467 0 1.962667 0.170667 2.858667 0.170666a4.949333 4.949333 0 0 1 1.6128 0.187734c0.887467 0 1.792 0.170667 2.679467 0.170666h1.6128c0.887467 0 1.962667 0.1792 2.858666 0.1792h1.2544c1.425067 0 2.858667 0.187733 4.292267 0.187734h0.5376c1.245867 0 2.500267 0 3.754667 0.170666h0.7168c3.396267 0 6.792533 0.1792 10.1888 0.1792h40.064c-3.396267 0-6.792533 0-10.1888-0.170666h-0.7168c-1.2544 0-2.5088 0-3.584-0.1792h-0.529067c-1.4336 0-2.8672-0.1792-4.3008-0.1792h-1.245867c-0.896 0-1.962667-0.1792-2.858666-0.1792h-1.621334c-0.887467 0-1.783467-0.1792-2.679466-0.1792-0.529067 0-1.066667 0-1.604267-0.1792-0.896 0-1.962667-0.1792-2.858667-0.1792h-1.2544c-1.2544-0.1792-2.688-0.1792-3.933866-0.3584h-0.5376c-1.0752-0.1792-2.3296-0.1792-3.396267-0.3584-0.5376 0-0.896 0-1.2544-0.1792-0.896 0-1.6128-0.1792-2.5088-0.1792-0.5376 0-0.887467 0-1.425067-0.1792-0.896 0-1.6128-0.1792-2.3296-0.1792-0.3584 0-0.896 0-1.2544-0.1792-0.887467-0.170667-1.792-0.170667-2.679466-0.3584h-0.896c-1.066667-0.170667-2.321067-0.170667-3.396267-0.3584-0.3584 0-0.5376 0-0.896-0.170667-0.7168 0-1.604267-0.187733-2.321067-0.187733-0.3584 0-0.7168-0.170667-1.2544-0.170667-0.7168 0-1.2544-0.187733-1.962666-0.187733-0.3584 0-0.7168-0.170667-1.0752-0.170667-0.7168 0-1.2544-0.187733-1.962667-0.187733-0.366933 0-0.725333 0-0.896-0.170667-0.7168-0.1792-1.621333-0.1792-2.3296-0.3584h-0.3584c-0.896-0.1792-1.6128-0.1792-2.500267-0.3584-0.3584 0-0.5376 0-0.7168-0.1792-0.5376 0-1.0752-0.1792-1.6128-0.1792-0.3584 0-0.5376 0-0.896-0.1792-0.5376 0-0.887467-0.1792-1.245866-0.1792-0.1792 0-0.5376 0-0.7168-0.1792-0.5376 0-0.896-0.1792-1.4336-0.1792h-0.3584c-0.5376 0-1.066667-0.1792-1.604267-0.1792h-0.3584c-0.3584 0-0.7168-0.1792-0.896-0.1792h-0.3584c-0.1792 0-0.5376 0-0.7168-0.1792h-41.489067 0.349867c-0.170667 0 0 0 0.1792 0.1792zM538.939733 348.9792v-50.082133h-40.055466v50.090666l112.136533 78.685867v114.286933H651.093333V427.6736l-112.145066-78.6944zM600.1152 307.6608c-7.159467 1.9712-15.0272 2.8672-23.611733 2.8672h40.064c15.018667 0 28.791467-2.5088 38.0928-10.018133 0-5.905067 0-13.056 0.1792-20.565334v-5.009066c0-5.905067 0.1792-11.8016 0.1792-17.527467v-6.980267-2.321066-4.292267-1.962667c0-4.650667-0.170667-8.593067-0.3584-11.451733h-40.064c0.896 13.2352 0 48.827733 0 70.109867-4.113067 3.217067-9.122133 5.546667-14.481067 7.150933zM759.466667 560.213333v-0.366933c0-0.7168-0.170667-1.4336-0.3584-2.141867v-0.3584c0-0.1792-0.170667-0.3584-0.170667-0.7168 0-0.1792-0.187733-0.3584-0.187733-0.5376-0.170667-0.5376-0.349867-0.896-0.529067-1.4336 0-0.170667 0-0.170667-0.1792-0.3584-0.1792-0.5376-0.5376-1.066667-0.7168-1.604266 0-0.1792-0.1792-0.3584-0.1792-0.3584-0.1792-0.3584-0.3584-0.7168-0.7168-1.0752-0.170667-0.170667-0.170667-0.3584-0.3584-0.5376-0.170667-0.3584-0.5376-0.7168-0.7168-1.0752-0.170667-0.170667-0.170667-0.349867-0.3584-0.529067a636.612267 636.612267 0 0 1-1.066667-1.0752l-0.1792-0.1792c-0.3584-0.3584-0.7168-0.7168-1.2544-1.0752h-0.1792l-2.1504-1.604267-0.170666-0.187733c-0.187733 0-0.3584-0.170667-0.3584-0.170667-0.3584-0.1792-0.896-0.5376-1.2544-0.7168-0.1792 0-0.1792-0.1792-0.3584-0.1792s-0.1792-0.1792-0.3584-0.1792l-1.0752-0.5376c-0.170667 0-0.3584-0.1792-0.5376-0.1792-0.170667 0-0.170667 0-0.349867-0.1792-0.3584-0.170667-0.7168-0.170667-1.0752-0.3584-0.1792 0-0.3584-0.170667-0.7168-0.170666h-0.3584c-0.3584 0-0.7168-0.187733-1.0752-0.187734-0.170667 0-0.5376-0.170667-0.7168-0.170666h-0.349867c-0.366933 0-0.7168 0-1.2544-0.187734H698.837333h1.2544a3.498667 3.498667 0 0 1 1.2544 0.1792c0.3584 0 0.708267 0.1792 1.066667 0.1792 0.3584 0 0.7168 0.1792 1.0752 0.1792 0.3584 0 0.7168 0.1792 0.896 0.1792 0.3584 0.1792 0.7168 0.1792 1.0752 0.3584 0.349867 0.1792 0.5376 0.1792 0.887467 0.3584l1.0752 0.5376c0.1792 0.170667 0.5376 0.170667 0.7168 0.3584 0.3584 0.170667 0.896 0.5376 1.2544 0.7168 0.170667 0.170667 0.3584 0.170667 0.7168 0.349867 0.708267 0.5376 1.425067 0.896 2.141866 1.621333 0.3584 0.349867 0.896 0.708267 1.2544 1.245867l0.170667 0.170667 1.0752 1.083733c0.1792 0.170667 0.1792 0.349867 0.3584 0.529067 0.1792 0.3584 0.5376 0.7168 0.7168 1.0752 0.1792 0.1792 0.1792 0.3584 0.3584 0.5376 0.1792 0.3584 0.5376 0.7168 0.7168 1.0752 0 0.170667 0.1792 0.3584 0.1792 0.3584a6.340267 6.340267 0 0 1 0.7168 1.604266c0 0.1792 0 0.1792 0.170667 0.3584 0.187733 0.5376 0.366933 0.896 0.546133 1.4336 0 0.170667 0.170667 0.3584 0.170667 0.5376a2.269867 2.269867 0 0 1 0.187733 1.0752c0.170667 0.708267 0.349867 1.425067 0.349867 2.141867v0.3584c0 0.7168 0.1792 1.4336 0 2.141867V795.221333h40.064V562.346667c0.1792-0.708267 0.1792-1.425067 0.1792-2.133334z" fill="#286C60" p-id="5273"></path><path d="M699.195733 541.960533c11.264 0 20.394667 9.130667 20.215467 20.394667v232.686933H564.164267V767.488c0-42.205867-34.158933-76.544-76.373334-76.544-2.321067 0-4.650667 0.170667-6.971733 0.349867-40.2432 3.584-69.572267 39.7056-69.572267 80.128v23.611733H256V562.346667c0-11.264 9.122133-20.394667 20.394667-20.394667h88.3456V427.6736l111.957333-78.6944V230.4c2.1504 0.3584 44.3648 7.150933 85.1456 7.150933 20.386133 0 39.8848-1.792 52.5824-7.150933 0.887467 13.2352 0 48.827733 0 70.109867-9.301333 7.338667-23.074133 10.018133-38.101333 10.018133-26.282667 0-57.233067-7.867733-77.44-11.451733v50.082133l111.957333 78.6944v114.286933h88.354133v-0.170666z m-211.2256-5.188266a53.504 53.504 0 0 0 53.4784-53.4784 54.570667 54.570667 0 0 0-8.942933-29.687467 53.5552 53.5552 0 0 0-44.535467-23.7824 53.973333 53.973333 0 0 0-37.7344 15.735467 53.981867 53.981867 0 0 0-14.6688 27.3664 52.471467 52.471467 0 0 0 3.0464 30.941866 53.76 53.76 0 0 0 19.669334 23.9616 52.701867 52.701867 0 0 0 29.696 8.942934z" fill="#2FE7A5" p-id="5274"></path></svg>