<?xml version="1.0" standalone="no"?><!DOCTYPE svg PUBLIC "-//W3C//DTD SVG 1.1//EN" "http://www.w3.org/Graphics/SVG/1.1/DTD/svg11.dtd"><svg t="1690557577069" class="icon" viewBox="0 0 1130 1024" version="1.1" xmlns="http://www.w3.org/2000/svg" p-id="1538" xmlns:xlink="http://www.w3.org/1999/xlink" width="35.3125" height="32"><path d="M1086.482985 333.082375m-43.738089 0a43.73809 43.73809 0 1 0 87.476179 0 43.73809 43.73809 0 1 0-87.476179 0Z" fill="#8BC17D" p-id="1539"></path><path d="M256.180239 48.784792m-23.310959 0a23.31096 23.31096 0 1 0 46.621919 0 23.31096 23.31096 0 1 0-46.621919 0Z" fill="#8BC17D" p-id="1540"></path><path d="M524.616757 673.614644m-306.647266 0a306.647266 306.647266 0 1 0 613.294532 0 306.647266 306.647266 0 1 0-613.294532 0Z" fill="#8BC17D" p-id="1541"></path><path d="M848.567003 677.70007h-209.798639a29.07862 29.07862 0 0 1 0-58.15724h209.798639a29.07862 29.07862 0 0 1 0 58.15724z" fill="#535453" p-id="1542"></path><path d="M743.547524 783.440507a28.838301 28.838301 0 0 1-28.838301-28.838301v-217.729172a29.07862 29.07862 0 1 1 57.916921 0V754.602206a29.07862 29.07862 0 0 1-29.07862 28.838301z" fill="#535453" p-id="1543"></path><path d="M743.547524 565.951655c-154.525229 0-280.212157-126.888524-280.212157-283.095987S589.022295 0 743.547524 0s280.452476 126.888524 280.452476 282.855668c0 156.207463-125.686928 283.095987-280.452476 283.095987z m0-508.034734c-122.562779 0-222.295236 100.934053-222.295236 224.938747s99.732457 224.938747 222.295236 224.938746 222.535555-100.693734 222.535555-224.938746-99.732457-224.938747-222.535555-224.938747z m251.614175 224.938747z" fill="#535453" p-id="1544"></path><path d="M280.452476 1024C125.927247 1024 0 897.111476 0 741.144332s125.927247-282.855668 280.452476-282.855667 280.452476 126.888524 280.452476 282.855667-125.686928 282.855668-280.452476 282.855668z m0-507.794414c-122.562779 0-222.295236 100.934053-222.295236 224.938746S157.889697 966.083079 280.452476 966.083079s222.535555-100.934053 222.535555-224.938747-99.732457-224.938747-222.535555-224.938746z" fill="#535453" p-id="1545"></path><path d="M280.452476 516.205586a29.07862 29.07862 0 0 1-28.838301-29.07862v-217.488853a29.07862 29.07862 0 1 1 57.916921 0v217.488853a29.07862 29.07862 0 0 1-29.07862 29.07862z" fill="#535453" p-id="1546"></path><path d="M405.418446 408.542596a28.838301 28.838301 0 0 1-18.985214-7.209576l-105.980756-93.243839-105.740437 93.243839a29.07862 29.07862 0 1 1-38.451067-43.49777l124.96597-110.066182a29.318939 29.318939 0 0 1 38.451068 0l124.96597 110.066182a28.838301 28.838301 0 0 1-19.225534 50.707346z" fill="#535453" p-id="1547"></path></svg>